<?xml version="1.0" encoding="UTF-8" standalone="no"?>
<!DOCTYPE svg PUBLIC "-//W3C//DTD SVG 1.1//EN" "http://www.w3.org/Graphics/SVG/1.1/DTD/svg11.dtd">
<svg width="100%" height="100%" viewBox="0 0 1024 1024" version="1.1" xmlns="http://www.w3.org/2000/svg" xmlns:xlink="http://www.w3.org/1999/xlink" xml:space="preserve" xmlns:serif="http://www.serif.com/" style="fill-rule:evenodd;clip-rule:evenodd;stroke-linecap:round;stroke-linejoin:round;stroke-miterlimit:6.047;">
    <g transform="matrix(1,0,0,1,267.450644,-190)">
        <path d="M755,412L755,992C755,1114.525 655.525,1214 533,1214L-47,1214C-169.525,1214 -269,1114.525 -269,992L-269,412C-269,289.475 -169.525,190 -47,190L533,190C655.525,190 755,289.475 755,412Z" style="fill:rgb(255,195,110);"/>
    </g>
    <g transform="matrix(1.312344,0.030388,-0.028875,1.246997,-150.444537,-201.748065)">
        <path d="M397.297,753.96C397.55,755.842 397.687,757.793 397.706,759.887C397.891,780.623 380.651,795.379 358.834,790.377C352.299,788.879 336.835,784.403 298.231,751.23C278.527,734.298 256.049,712.448 248.339,701.551C220.868,662.727 233.692,593.041 251.773,555.488C256.289,546.11 260.279,540.427 262.045,538.008C266.886,530.012 288.384,492.958 288.418,492.905C289.196,491.698 289.968,490.479 290.888,489.377C292.3,487.685 293.802,486.307 295.319,485.185C294.307,485.028 293.266,484.804 292.199,484.502C290.798,484.105 289.425,483.586 288.112,482.955C285.374,481.641 285.45,481.507 282.97,479.751C282.336,479.303 281.718,478.867 281.114,478.441C279.315,477.401 277.959,477.177 273.961,475.261C267.01,471.931 257.501,465.388 251.86,448.699C250.88,445.802 250.377,443.068 250.221,440.52C248.419,436.186 247.568,432.997 247.181,429.397C246.102,419.352 249.697,405.575 265.851,398.15C266.302,397.942 266.745,397.747 267.198,397.554C268.417,396.216 269.819,394.817 271.402,393.459C272.638,392.398 273.844,391.482 274.984,390.689C276.675,388.02 279.123,385.267 282.675,382.976C283.242,382.61 286.165,380.724 290.235,379.686C297.836,375.092 305.282,376.068 306.698,376.253C308.209,376.451 316.585,377.549 322.939,385.171C324.851,386.925 326.271,388.773 327.305,390.406C328.976,391.856 330.163,392.839 330.356,393.025C331.38,394.013 332.441,394.972 333.351,396.066C333.616,396.385 334.2,397.087 334.903,398.136C337.369,400.331 339.247,402.756 340.607,405.051C342.121,407.605 343.095,410.136 343.737,412.44C344.353,412.306 345.004,412.188 345.686,412.093C354.484,397.58 371.093,391.409 384.389,387.121C393.967,384.032 406.067,380.752 419.417,376.779C420.107,376.573 420.785,376.328 421.484,376.161C422.862,375.831 424.237,375.463 425.643,375.288C426.948,375.126 433.276,374.341 440.12,377.743C448.639,375.817 455.781,374.961 462.071,375.407C471.374,376.067 476.349,379.278 477.513,379.663C479.046,380.169 486.946,382.295 509.867,380.411C514.985,379.99 519.291,379.491 519.336,379.489C520.775,379.432 522.217,379.297 523.654,379.383C525.329,379.484 535.142,380.076 542.219,389.153C545.267,393.062 546.665,397.079 547.244,400.519C550.018,401.276 552.855,402.303 556.002,404.149C560.433,406.749 563.337,409.793 565.228,411.9C566.929,412.314 568.727,412.467 568.963,412.513C570.375,412.786 571.809,412.974 573.187,413.382C575.142,413.96 576.881,414.715 578.423,415.575C581.951,411.624 586.16,407.968 590.997,404.733C608.175,393.241 627.443,390.941 640.74,401.423C653.453,411.446 654.921,428.805 655.353,434.147C656.695,450.751 653.795,472.205 654.104,481.065C654.188,483.465 654.243,483.468 653.938,485.846C653.112,492.293 650.152,496.857 647.494,499.771C645.372,508.69 642.333,518.622 637.535,526.928C636.874,528.072 633.068,537.366 635.064,564.29C635.083,564.553 635.287,567.309 635.275,567.571C635.206,569.044 635.243,570.529 635.035,571.989C634.794,573.689 633.371,583.7 623.353,589.989C623.254,590.051 623.122,590.134 622.959,590.233C624.338,604.589 625.494,618.123 624.359,625.577C624.322,625.826 623.461,633.585 617.88,639.865C614.247,643.952 610.222,646.181 606.567,647.368C610.039,660.061 612.731,667.772 613.018,668.633C613.038,668.692 613.057,668.75 613.077,668.808C613.163,669.031 613.251,669.254 613.338,669.479C620.934,688.906 626.447,701.004 627.528,704.285C627.767,705.009 629.145,709.193 628.925,713.7C628.865,714.931 628.769,716.164 628.568,717.38C628.445,718.126 628.193,718.846 627.956,719.565C627.565,720.748 627.193,721.943 626.684,723.081C626.313,723.912 624.304,728.408 619.847,732.169C619.098,732.801 615.023,736.239 608.861,737.589C603.712,738.718 599.349,737.87 598.538,737.713C597.535,737.518 596.551,737.232 595.569,736.949C592.041,735.931 592.065,735.819 588.997,733.797C586.339,732.045 584.119,729.417 583.752,728.982C582.614,727.634 579.94,724.591 573.309,708.289C570.532,701.461 567.791,694.066 565.137,686.183C554.718,659.431 549.759,642.556 545.604,623.84C544.905,627.071 543.677,629.766 542.28,631.968C542.053,632.91 541.801,633.844 541.47,634.753C540.981,636.095 540.156,637.298 539.347,638.474C538.584,639.584 534.293,645.821 525.761,648.414C524.168,648.899 514.851,651.731 505.108,645.807C503.002,644.527 501.28,643.061 499.881,641.583C498.235,654.53 496.532,666.757 494.763,677.338C489.942,706.17 485.258,720.705 477.052,729.235C475.857,732.738 473.95,736.356 470.872,739.561C467.915,742.64 464.832,744.291 464.244,744.605C462.989,745.277 455.901,749.072 446.629,747.129C444.467,746.676 441.61,745.771 438.608,743.998C436.452,749.89 432.667,753.336 431.796,754.128C423.022,762.116 412.967,760.771 411.261,760.543C404.798,759.679 400.243,756.705 397.297,753.96Z" style="fill:rgb(115,57,29);"/>
        <path d="M263.897,856.561C260.723,836.205 263.651,823.52 264.579,818.888C264.761,817.977 264.95,817.056 265.152,816.13C265.144,815.901 265.134,815.651 265.122,815.377C264.456,800.199 264.618,791.066 265.147,784.409C265.25,778.443 266.054,772.652 268.122,761.902C268.701,758.894 268.559,758.851 269.639,755.986C269.984,755.07 271.308,751.561 274.485,747.986C274.788,743.632 275.66,738.51 277.586,732.564C278.413,730.011 279.292,728.361 279.477,728.013C284.961,717.716 294.684,715.513 296.339,715.138C297.828,714.8 305.844,712.984 314.272,717.662C314.669,717.807 315.06,717.964 315.443,718.142C318.25,719.444 320.441,721.112 321.928,722.446C324.234,722.786 325.801,723.317 326.229,723.462C329.758,724.657 332.234,726.37 332.71,726.699C334.233,727.753 343.163,733.929 343.806,747.016C343.941,749.768 343.661,751.789 343.282,754.906C343.785,755.759 344.098,756.407 344.252,756.726C344.549,757.341 346.101,760.555 346.624,764.925C346.665,765.267 346.706,765.609 346.747,765.951C346.959,766.129 347.166,766.307 347.367,766.487C350.544,765.415 353.822,764.974 356.929,765.115C361.534,765.324 368.526,766.961 374.574,772.985C375.678,756.901 376.284,744.051 376.481,742.528C376.662,741.126 376.789,739.709 377.117,738.334C377.499,736.728 379.729,727.361 389.607,721.916C391.025,721.135 399.168,716.646 409.554,719.923C410.309,711.681 411.047,703.162 411.756,694.46C411.986,691.645 411.875,691.624 412.576,688.888C412.992,687.261 415.433,677.731 425.695,672.502C427.191,671.739 435.957,667.273 446.663,671.519C449.433,672.618 451.708,674.052 453.569,675.601C454.573,669.998 455.631,664.126 456.746,657.971C457.135,655.825 457.454,653.665 457.915,651.533C458.219,650.128 458.55,648.722 459.041,647.371C462.967,636.578 472.095,632.983 473.654,632.369C474.555,632.015 477.986,630.664 482.696,630.595C483.604,627.675 486.418,620.641 494.24,616.125C494.318,615.697 494.389,615.273 494.452,614.851C494.807,612.473 494.747,612.459 495.477,610.165C495.984,608.573 498.953,599.251 509.423,594.605C519.892,589.958 528.796,594.009 530.318,594.701C530.86,594.948 532.508,595.698 534.527,597.143C534.794,594.335 535.066,591.889 535.343,589.858C535.989,585.11 537.161,576.832 543.11,570.37C547.203,565.924 551.656,564.123 552.507,563.778C553.612,563.331 559.684,560.875 567.342,562.483C570.558,563.158 572.649,564.14 573.086,564.345C573.766,564.664 576.869,566.12 580.098,569.253C580.637,566.995 581.531,564.303 583.021,561.765C584.455,559.323 585.751,557.868 586.026,557.559C586.387,557.154 587.305,556.122 588.766,554.906C588.526,552.609 588.409,552.288 588.636,549.422C589.532,538.092 597.169,532.201 598.903,530.929C600.49,527.957 602.347,525.952 602.724,525.545C603.026,525.22 603.714,524.477 604.775,523.566C604.796,523.506 604.818,523.446 604.84,523.384C605.265,522.2 605.678,521.006 606.224,519.873C610.74,510.518 619.059,507.507 620.506,506.983C621.655,506.567 627.89,504.31 635.515,506.259C638.595,504.073 642.281,502.265 646.69,501.285C653.122,499.854 660.275,500.47 667.182,503.82C674.142,507.194 678.969,512.491 681.287,515.204C684.318,517.835 688.988,521.985 701.87,534.859C706.563,539.55 709.267,544.564 710.891,549.034C714.431,550.918 718.688,553.558 719.362,553.977C720.491,554.676 721.601,555.415 722.627,556.258C724.909,558.134 724.807,558.242 726.769,560.453C738.808,574.021 742.703,578.479 744.85,585.655C745.103,586.501 746.235,590.285 746.249,596.596C746.249,596.689 746.272,597.308 746.222,598.298C764.742,628.493 773.869,648.636 783.856,679.759C790.427,700.238 790.876,703.384 805.763,751.383C808.204,759.255 806.53,765.339 806.385,767.899C805.87,777.027 810.329,799.32 810.869,802.019C812.548,810.41 814.874,818.45 817.166,847.098C817.766,854.599 818.131,860.852 818.165,861.432C818.327,864.125 818.413,864.128 818.114,866.808C817.927,868.477 816.836,878.255 807.4,884.86C797.964,891.465 788.403,889.144 786.771,888.748C786.167,888.601 783.933,888.059 781.184,886.654C780.702,886.92 780.214,887.176 779.728,887.436C779.165,887.739 778.598,888.043 778,888.268C774.602,889.546 770.956,889.891 770.33,889.951C760.346,890.898 676.309,894.123 673.677,894.15C673.066,894.157 672.454,894.189 671.843,894.161C671.354,894.139 670.866,894.085 670.383,894.002C669.011,893.768 667.624,893.586 666.284,893.211C664.802,892.797 663.441,892.278 662.196,891.688C660.107,893.122 657.58,894.441 654.615,895.28C649.857,896.626 645.805,896.249 645.039,896.178C637.879,895.512 632.518,891.579 631.586,890.895C630.617,890.184 629.72,889.434 628.871,888.662C605.286,892.799 581.368,893.497 554.994,895.229C546.806,895.766 540.781,896.276 536.153,896.739C531.925,897.324 527.936,897.789 524.305,898.18C504.049,901.751 496.066,900.476 490.718,899.756C475.273,901.372 464.702,900.247 456.785,898.648C453.866,901.331 449.485,904.161 443.355,905.186C437.167,906.221 432.212,904.668 430.488,904.212C422.29,902.045 417.474,900.035 414.58,899.269C414.547,899.269 414.515,899.268 414.482,899.267C411.788,899.413 408.739,900.505 405.365,901.02C396.189,907.491 383.144,908.742 370.294,900.307C364.814,904.146 357.73,909.901 347.627,909.892C346.676,909.891 341.424,909.886 336.046,907.219C335.665,907.03 334.198,906.302 332.396,905.01C331.928,905.025 331.468,905.027 331.016,905.017C326.14,907.723 320.113,909.72 312.667,910.42C305.694,911.075 298.739,910.489 294.7,910.655C292.272,910.755 292.269,910.817 289.859,910.529C288.219,910.332 278.652,909.187 272.113,899.987C266.854,892.587 267.161,885.049 267.666,881.544C267.537,879.906 267.422,878.267 267.29,876.63C264.651,871.216 262.858,864.698 263.897,856.561Z" style="fill:rgb(115,57,29);"/>
        <path d="M289.253,482.688C288.966,483.281 285.939,491.012 273.138,488.055C256.136,484.128 227.963,460.468 237.218,412.536C237.243,412.407 237.438,411.401 237.603,410.937C237.652,410.797 237.917,410.054 238.475,409.301C239.262,408.237 239.49,408.207 247.597,400.098C247.063,399.166 246.688,398.046 246.645,396.716C246.543,393.533 248.152,391.947 251.867,388.352C254.338,385.962 257.948,382.602 260.672,380.098C260.924,379.867 261.185,379.645 261.428,379.405C263.901,376.949 266.339,374.458 268.821,372.011C270.402,370.453 272.351,370.229 272.691,370.189C277.291,369.66 289.932,371.514 299.944,371.506C313.236,371.495 326.34,379.632 337.044,388.757C343.196,393.789 348.394,399.193 352.442,403.805C352.477,403.845 352.6,403.985 352.755,404.17C352.784,404.201 352.813,404.232 352.841,404.264L352.837,404.267C353.09,404.571 353.397,404.959 353.563,405.232C353.782,405.594 355.073,407.725 354.148,410.489C353.223,413.253 350.91,414.178 350.517,414.335C347.81,415.418 345.609,414.251 345.235,414.053C344.619,413.727 344.127,413.313 343.452,412.622L343.441,412.632C343.373,412.556 343.301,412.473 343.224,412.386C342.076,411.183 340.377,409.222 336.877,405.738C334.045,402.919 331.375,400.465 328.865,398.331C317.488,389.12 301.059,380.255 284.165,386.881C253.457,398.924 241.32,455.765 277.029,471.434C281.527,473.408 284.931,473.955 285.881,474.347C288.896,475.59 289.518,478.312 289.622,478.763C289.657,478.919 289.893,479.951 289.752,480.755C289.638,481.411 289.368,482.032 289.253,482.688Z" style="fill:rgb(234,146,95);"/>
        <path d="M634.204,409.232C631.845,405.749 629.182,401.902 626.305,397.891C624.305,395.102 625.39,392.359 625.567,391.911C625.744,391.462 626.828,388.719 630.195,388.051C633.485,387.398 635.604,389.511 635.946,389.852C637.402,391.303 643.358,397.539 644,398.211C645.137,399.401 646.221,400.545 647.256,401.651C649.107,401.877 650.291,402.867 650.535,403.07C651.582,403.946 652.132,404.976 652.423,405.803C653.066,405.907 655.317,406.382 656.752,408.707C656.857,408.876 657.02,409.22 657.225,409.695L657.245,409.688C658.907,413.827 660.286,417.116 661.453,419.833C662.083,420.973 662.67,422.135 663.217,423.333C664.013,425.073 664.718,426.881 665.351,428.77C666.637,431.782 667.552,434.213 668.527,437.752C670.281,444.119 671.001,451.638 671.462,459.82C671.472,460.003 671.559,461.554 671.495,462.106C671.091,465.598 668.349,466.877 667.904,467.084C667.631,467.212 667.363,467.316 667.1,467.4C666.338,471.472 665.421,474.818 665.084,478.11C665.064,478.302 664.942,479.495 664.495,480.453C664.284,480.903 662.982,483.688 659.429,484.049C659.164,484.076 658.159,484.178 656.955,483.823C653.728,490.986 649.69,498.091 645.086,505.066C645.002,505.195 644.323,506.222 643.952,506.619C641.613,509.121 638.716,508.6 638.242,508.515C634.871,507.909 633.735,505.193 633.55,504.749C632.479,502.189 633.476,500.04 633.647,499.672C645.61,473.897 655.527,453.822 634.204,409.232Z" style="fill:rgb(234,146,95);"/>
        <path d="M253.748,407.653C251.856,410.452 251.329,411.187 250.38,411.854C249.974,412.14 247.465,413.905 244.208,412.46C243.754,412.258 240.95,411.015 240.514,407.478C240.351,406.16 240.676,405.245 241.276,402.253C241.521,401.032 241.595,400.66 241.964,398.985C242.047,398.609 242.524,396.45 244.728,395.043C245.406,394.61 246.181,394.296 246.973,394.154C247.358,394.085 249.579,393.686 251.745,395.207C252.396,395.664 252.882,396.186 253.245,396.7C253.291,396.724 253.336,396.749 253.382,396.775C253.768,396.991 256.083,398.289 256.597,401.265C256.733,402.058 256.723,402.894 256.547,403.679C255.976,406.239 254.101,407.432 253.748,407.653ZM246.837,407.513C246.765,407.469 246.74,407.452 246.774,407.476C246.796,407.491 246.817,407.504 246.837,407.513Z" style="fill:rgb(234,146,95);"/>
        <path d="M394.321,465.286C397.856,467.42 399.214,471.953 397.336,475.709C395.362,479.659 390.552,481.262 386.603,479.287C385.438,478.705 383.654,477.266 381.481,475.144C377.261,471.023 368.863,462.851 353.701,467.884C349.51,469.275 344.979,467.002 343.588,462.812C342.197,458.621 344.47,454.09 348.66,452.699C375.168,443.9 388.624,460.146 394.222,465.199C394.25,465.224 394.287,465.256 394.321,465.286Z"/>
        <path d="M506.523,490.634C502.612,492.684 497.773,491.173 495.723,487.262C493.674,483.351 495.185,478.512 499.095,476.463C500.622,475.663 524.726,457.303 528.808,455.584C536.986,452.141 542.459,451.805 546.605,452.91C549.771,453.754 552.437,455.417 554.907,457.965C557.253,460.385 559.477,463.87 562.37,468.209C564.819,471.883 563.825,476.854 560.151,479.303C556.477,481.752 551.506,480.758 549.057,477.084C547.436,474.652 546.096,472.518 544.794,470.765C543.993,469.688 543.519,468.646 542.483,468.37C540.704,467.896 538.524,468.854 535.017,470.331C531.084,471.987 507.993,489.864 506.523,490.634Z"/>
        <path d="M316.467,432.947C310.481,422.989 284.613,413.44 292.877,401.723C299.966,391.674 329.311,420.029 332.128,428.573C342.996,461.545 137.794,629.526 297.122,735.078C307.14,741.714 331.343,751.391 330.436,759.454C330.13,762.171 326.018,769.589 317.514,765.122C114.891,658.687 284.638,496.74 316.467,432.947Z"/>
        <path d="M264.671,730.434C270.017,716.182 280.883,726.569 279.937,733.173C278.986,739.808 276.898,746.241 275.833,752.859C255.994,876.221 281.656,882.647 283.057,903.374C283.811,914.543 270.626,915.307 267.566,907.711C259.752,888.311 240.054,840.053 264.089,730.336L264.671,730.434ZM264.16,731.56Cnan,nan 264.16,731.56 264.16,731.56L264.16,731.56Z"/>
        <path d="M282.409,485.569C283.462,485.44 284.51,485.109 285.568,485.184C286.052,485.218 288.842,485.416 291.005,487.871C291.335,488.246 293.237,490.404 293.005,493.781C292.781,497.053 290.682,498.898 290.318,499.218C289.739,499.727 287.45,501.739 281.062,501.905C257.822,502.508 212.994,473.724 220.287,423.323C225.93,384.32 271.602,339.784 328.655,371.126C342.202,378.568 352.678,388.288 358.295,393.811C358.646,394.157 360.662,396.14 360.69,399.483C360.718,402.827 358.735,404.844 358.39,405.195C358.044,405.546 356.062,407.562 352.718,407.59C351.688,407.599 350.636,407.412 349.68,407.028C347.702,406.233 347.795,406.054 346.267,404.565C285.797,345.652 240.872,393.44 236.219,425.635C230.183,467.392 269.752,487.271 281.597,485.741C282.048,485.683 282.325,485.597 282.409,485.569ZM282.409,485.569C282.413,485.567 282.43,485.562 282.435,485.561C282.435,485.561 282.426,485.564 282.409,485.569Z"/>
        <path d="M360.265,405.503C358.618,406.174 357.192,407.449 355.465,407.904C354.473,408.165 353.383,407.84 352.411,407.511C351.94,407.351 349.231,406.434 347.754,403.392C347.543,402.956 346.322,400.442 347.383,397.338C347.504,396.986 348.12,395.184 350.053,393.528C354.885,389.39 387.463,370.432 414.661,366.859C463.72,360.416 498.263,357.9 578.74,402.447C579.171,402.686 581.645,404.055 582.568,407.269C582.853,408.259 582.955,409.323 582.842,410.346C582.467,413.711 580.206,415.504 579.814,415.815C577.245,417.853 574.467,417.544 573.985,417.49C571.855,417.253 571.895,417.057 570.021,416.022C493.415,373.699 461.883,376.9 416.778,382.818C394.321,385.765 365.946,401.745 360.499,405.778C360.421,405.686 360.343,405.595 360.265,405.503ZM360.913,405.276L360.964,405.323L361.037,405.242C360.995,405.253 360.954,405.264 360.913,405.276Z"/>
        <path d="M629.262,519.039C628.993,518.627 627.447,516.259 628.135,512.986C628.347,511.979 628.754,510.99 629.333,510.139C630.603,508.274 630.796,508.444 632.675,507.194C691.326,468.163 668.718,406.837 628.828,397.674C604.659,392.123 585.968,410.923 579.736,415.289C576.822,417.329 573.988,416.799 573.484,416.704C572.472,416.515 571.475,416.13 570.612,415.569C567.772,413.726 567.187,410.906 567.085,410.417C566.419,407.211 567.938,404.863 568.202,404.455C569.41,402.587 569.638,402.793 571.397,401.431C578.972,395.567 606.513,370.381 642.308,385.127C689.144,404.421 707.68,477.298 640.793,521.125C639.247,522.138 639.258,522.219 637.438,522.557C636.96,522.645 634.213,523.155 631.502,521.309C630.166,520.4 630.146,520.394 629.262,519.039Z"/>
        <path d="M631.392,431.099C631.97,434.352 630.312,436.701 630.028,437.103C629.434,437.944 628.669,438.69 627.8,439.242C626.156,440.285 626.099,440.194 624.176,440.508C618.599,441.418 605.014,442.595 603.867,447.248C603.489,448.78 603.794,451.901 606.33,457.058C606.892,458.201 608.023,460.501 614.372,470.797C627.901,492.738 638.993,506.98 641.412,509.845C642.546,511.188 642.612,511.172 643.162,512.84C644.19,515.955 642.943,518.455 642.726,518.89C642.503,519.337 641.215,521.92 638,522.98C637.539,523.132 634.885,524.008 631.95,522.544C630.278,521.711 630.304,521.643 629.1,520.219C621.985,511.797 606.071,489.033 594.077,468.258C591.257,463.372 582.227,447.301 592.268,435.542C599.845,426.668 613.916,425.9 622.111,424.531C625.376,423.986 627.696,425.624 628.098,425.907C630.81,427.822 631.306,430.615 631.392,431.099Z"/>
        <path d="M810.301,896.774C809.809,896.748 806.987,896.599 804.75,894.114C804.061,893.349 803.503,892.437 803.157,891.467C802.801,890.469 802.775,889.379 802.685,888.323C802.594,887.25 805.572,846.764 802.633,797.793C802.332,792.775 799.99,747.098 788.759,699.677C769.343,617.7 693.135,526.96 662.603,506.446C659.853,504.599 659.295,501.81 659.198,501.328C658.997,500.318 658.981,499.25 659.178,498.24C659.274,497.75 659.826,494.921 662.643,493.043C663.047,492.774 665.372,491.224 668.591,491.853C670.673,492.261 670.631,492.424 672.383,493.627C706.006,516.704 784.649,610.652 804.665,696.995C821.66,770.306 821.259,841.02 818.763,889.155C818.737,889.647 818.591,892.472 816.102,894.712C813.617,896.949 810.793,896.8 810.301,896.774Z"/>
        <path d="M815.934,889.636C815.947,890.06 816.021,892.492 814.049,894.588C812.079,896.681 809.652,896.757 809.229,896.771C631.407,902.346 453.574,907.56 275.747,912.954C275.323,912.967 272.89,913.041 270.794,911.068C270.149,910.461 269.605,909.719 269.239,908.912C269.062,908.519 268.037,906.257 269.076,903.534C270.083,900.897 272.274,899.904 272.654,899.732C273.485,899.356 274.405,899.133 275.316,899.104C453.138,893.529 630.972,888.315 808.799,882.921C809.223,882.908 811.656,882.834 813.752,884.807C815.848,886.779 815.922,889.212 815.934,889.636Z"/>
        <g transform="matrix(0.634699,0.203076,-0.30139,0.94197,235.311,-46.9246)">
            <ellipse cx="410.887" cy="521.72" rx="11.366" ry="17.822" style="fill:rgb(235,235,235);stroke:black;stroke-width:40.45px;"/>
        </g>
        <g transform="matrix(6.2718,0,0,1.39359,-2251.23,-231.45)">
            <ellipse cx="414.181" cy="539.227" rx="1.09" ry="4.885" style="fill:rgb(235,235,235);"/>
        </g>
        <g transform="matrix(1.23183,0,0,1.1056,-125.423,-61.1679)">
            <ellipse cx="530.479" cy="548.206" rx="20.736" ry="30.289"/>
        </g>
        <g transform="matrix(1,0,0,1,15.8974,-78.9956)">
            <circle cx="519.822" cy="612.5" r="6.459" style="fill:rgb(235,235,235);"/>
        </g>
        <g transform="matrix(1,0,0,1,0.38461,2.76034)">
            <path d="M412.902,633.35C397.971,635.985 389.722,631.134 383.139,626.268C378.301,622.691 374.466,618.74 369.568,611.394C366.816,607.265 363.457,590.36 375.381,583.062C378.392,581.219 382.603,580.271 387.93,579.891L388.65,579.891C392.588,579.753 418.319,581.517 435.094,596.272C443.932,604.046 439.759,623.497 412.902,633.35Z" style="fill:rgb(225,113,94);"/>
            <path d="M413.892,637.01C401.914,639.069 392.739,637.639 382.547,630.496C376.194,626.044 371.934,621.728 366.42,613.478C362.444,607.529 359.445,587.584 374.144,579.415C378.597,576.941 384.598,576.364 387.136,576.164C393.002,575.702 420.071,577.993 437.589,593.437C443.446,598.602 444.905,607.541 440.432,616.397C433.417,630.287 416.214,636.143 413.892,637.01ZM411.981,629.674C414.639,628.731 430.182,622.775 434.536,611.065C436.352,606.179 435.539,601.689 432.6,599.107C417.061,585.458 392.471,583.277 387.273,583.731C380.99,584.279 376.332,585.62 373.321,590.129C368.796,596.908 371.216,607.049 372.717,609.31C376.402,614.861 380.806,620.619 389.046,625.749C397.445,630.978 404.843,630.815 411.981,629.674Z" style="fill:rgb(225,113,94);"/>
        </g>
        <path d="M393.356,638.591L402.58,640.577C401.064,647.611 400.675,649.129 400.489,651.042C399.57,660.46 400.119,666.955 400.237,668.403C401.089,678.892 403.851,685.617 405.115,689.314L396.202,692.389C394.035,686.098 388.993,674.165 390.985,651.308C391.324,647.418 391.658,646.439 393.356,638.591Z"/>
        <g transform="matrix(0.974989,0,0,0.814687,9.96829,127.67)">
            <path d="M401.775,684.61C403.229,686.158 403.269,686.273 403.383,688.6C403.455,690.071 402.701,691.444 402.182,692.78C402.141,692.884 397.387,699.278 396.969,699.841C391.394,707.339 389.451,709.051 381.462,714.186C379.702,715.318 378.056,714.721 377.772,714.618C377.756,714.612 374.902,711.813 374.901,711.802C374.781,710.336 374.192,708.813 374.549,707.404C375.256,704.612 375.619,704.797 377.762,703.412C385.788,698.225 385.633,697.64 394.938,685.092C396.264,683.304 397.979,683.183 398.275,683.163C400.283,683.022 401.553,684.375 401.775,684.61Z"/>
        </g>
        <path d="M435.619,709.502C434.98,711.283 434.916,711.36 433.208,712.18C431.222,713.133 431.104,712.872 429.006,712.195C419.202,709.027 402.075,702.659 395.696,690.172C394.814,688.447 395.341,686.846 395.431,686.572C395.437,686.556 397.782,683.828 397.791,683.827C398.988,683.738 400.243,683.192 401.383,683.567C404.018,684.435 403.481,685.147 405.018,687.46C411.845,697.731 432.567,703.333 432.74,703.487C435.215,705.703 435.291,705.637 435.416,705.897C435.541,706.158 436.272,707.68 435.619,709.502Z"/>
        <g transform="matrix(0.946307,1.44445,-1.38012,0.90416,805.353,-616.036)">
            <ellipse cx="475.302" cy="605.356" rx="3.455" ry="9.708"/>
        </g>
        <g transform="matrix(0.851946,-0.788526,0.990225,1.06987,-588.934,345.433)">
            <ellipse cx="457.281" cy="587.052" rx="4.807" ry="10.834"/>
        </g>
        <g id="Layer5" transform="matrix(1,0,0,1,-59.6329,45.1929)">
            <g>
                <g transform="matrix(1,0,0,1,566.721,309.455)">
                    <text x="0px" y="0px" style="font-family:'MarkerFelt-Wide', 'Marker Felt';font-weight:700;font-size:170.667px;">?</text>
                </g>
                <g transform="matrix(1,0,0,1,645.057,309.455)">
                    <text x="0px" y="0px" style="font-family:'MarkerFelt-Wide', 'Marker Felt';font-weight:700;font-size:170.667px;">?<tspan x="78.336px " y="0px ">?</tspan></text>
                </g>
            </g>
        </g>
    </g>
</svg>
